<svg width="361" height="51" viewBox="0 0 361 51" fill="none" xmlns="http://www.w3.org/2000/svg">
<rect x="0.246094" width="360.449" height="51" rx="5" fill="#4285F4"/>
<rect x="2.42725" y="2" width="51.3367" height="47" rx="3" fill="white"/>
<path d="M47.6711 25.9245C47.6711 24.6006 47.5414 23.3277 47.3004 22.1057H28.0947V29.3274H39.0694C38.5966 31.6611 37.1599 33.6383 35.0002 34.9622V39.6465H41.5906C45.4465 36.3963 47.6711 31.6102 47.6711 25.9245Z" fill="#4285F4"/>
<path d="M28.0947 44.1696C33.6005 44.1696 38.2166 42.4978 41.5905 39.6465L35.0002 34.9622C33.1742 36.0823 30.8383 36.7443 28.0947 36.7443C22.7835 36.7443 18.2879 33.4601 16.6844 29.0474H9.87158V33.8844C13.227 39.986 20.1232 44.1696 28.0947 44.1696Z" fill="#34A853"/>
<path d="M16.6844 29.0474C16.2766 27.9273 16.0449 26.7307 16.0449 25.5002C16.0449 24.2698 16.2766 23.0732 16.6844 21.9531V17.116H9.87161C8.49051 19.6363 7.70264 22.4877 7.70264 25.5002C7.70264 28.5128 8.49051 31.3642 9.87161 33.8845L16.6844 29.0474Z" fill="#FBBC05"/>
<path d="M28.0947 14.2562C31.0886 14.2562 33.7767 15.1981 35.89 17.0481L41.7388 11.6934C38.2073 8.68078 33.5913 6.83081 28.0947 6.83081C20.1232 6.83081 13.227 11.0145 9.87158 17.116L16.6844 21.9531C18.2879 17.5403 22.7835 14.2562 28.0947 14.2562Z" fill="#EA4335"/>
<path d="M127.449 18.456H136.729V20.136H127.449V18.456ZM125.913 24.76H139.321V26.488H125.913V24.76ZM131.465 25.976H133.609V32.424H131.465V25.976ZM135.641 18.456H137.737V19.768C137.737 20.3013 137.726 20.8667 137.705 21.464C137.694 22.0613 137.651 22.7173 137.577 23.432C137.502 24.136 137.363 24.9253 137.161 25.8L135.081 25.544C135.358 24.3173 135.518 23.2453 135.561 22.328C135.614 21.4 135.641 20.5467 135.641 19.768V18.456ZM142.279 18.184H151.655V19.864H142.279V18.184ZM140.631 22.808H154.055V24.504H140.631V22.808ZM150.375 18.184H152.471V19.192C152.471 19.7253 152.455 20.3333 152.423 21.016C152.391 21.688 152.279 22.456 152.087 23.32L149.991 23.128C150.183 22.2853 150.295 21.5493 150.327 20.92C150.359 20.2907 150.375 19.7147 150.375 19.192V18.184ZM142.119 25.512H152.439V29.672H144.263V31.176H142.135V28.104H150.311V27.144H142.119V25.512ZM142.135 30.664H152.823V32.312H142.135V30.664ZM165.046 21.512H168.038V23.192H165.046V21.512ZM164.966 25.208H167.99V26.904H164.966V25.208ZM170.054 17.592H172.086V32.408H170.054V17.592ZM167.014 17.912H168.998V31.752H167.014V17.912ZM163.67 19.336H165.702C165.702 20.744 165.537 22.056 165.206 23.272C164.886 24.4773 164.332 25.5867 163.542 26.6C162.764 27.6133 161.686 28.5253 160.31 29.336L159.11 27.848C160.23 27.176 161.121 26.4453 161.782 25.656C162.454 24.856 162.934 23.976 163.222 23.016C163.521 22.0453 163.67 20.9627 163.67 19.768V19.336ZM159.958 19.336H164.374V21.048H159.958V19.336ZM182.085 21.176H184.901V22.904H182.085V21.176ZM184.309 17.608H186.453V26.408H184.309V17.608ZM181.429 26.728C182.474 26.728 183.376 26.84 184.133 27.064C184.89 27.288 185.472 27.6133 185.877 28.04C186.293 28.4667 186.501 28.9787 186.501 29.576C186.501 30.4933 186.048 31.1973 185.141 31.688C184.234 32.1893 182.997 32.44 181.429 32.44C179.861 32.44 178.624 32.1893 177.717 31.688C176.81 31.1973 176.357 30.4933 176.357 29.576C176.357 28.9787 176.56 28.4667 176.965 28.04C177.381 27.6133 177.968 27.288 178.725 27.064C179.482 26.84 180.384 26.728 181.429 26.728ZM181.429 28.344C180.789 28.344 180.25 28.392 179.813 28.488C179.376 28.5733 179.04 28.7067 178.805 28.888C178.581 29.0693 178.469 29.2987 178.469 29.576C178.469 29.8533 178.581 30.088 178.805 30.28C179.04 30.4613 179.376 30.6 179.813 30.696C180.25 30.7813 180.789 30.824 181.429 30.824C182.069 30.824 182.608 30.7813 183.045 30.696C183.482 30.6 183.813 30.4613 184.037 30.28C184.261 30.088 184.373 29.8533 184.373 29.576C184.373 29.2987 184.261 29.0693 184.037 28.888C183.813 28.7067 183.482 28.5733 183.045 28.488C182.608 28.392 182.069 28.344 181.429 28.344ZM177.477 19.08H179.205V20.024C179.205 20.9627 179.056 21.8587 178.757 22.712C178.458 23.5653 178 24.3173 177.381 24.968C176.773 25.608 175.994 26.088 175.045 26.408L173.973 24.728C174.581 24.5253 175.104 24.2533 175.541 23.912C175.989 23.5707 176.352 23.192 176.629 22.776C176.917 22.3493 177.13 21.9013 177.269 21.432C177.408 20.9627 177.477 20.4933 177.477 20.024V19.08ZM177.925 19.08H179.621V20.008C179.621 20.5947 179.738 21.1707 179.973 21.736C180.208 22.3013 180.57 22.8133 181.061 23.272C181.562 23.7307 182.202 24.0933 182.981 24.36L181.941 26.024C181.024 25.7147 180.266 25.2613 179.669 24.664C179.082 24.056 178.645 23.352 178.357 22.552C178.069 21.7413 177.925 20.8933 177.925 20.008V19.08ZM174.549 18.504H182.517V20.184H174.549V18.504ZM195.46 18.344C196.505 18.344 197.444 18.52 198.276 18.872C199.119 19.224 199.78 19.72 200.26 20.36C200.751 21 200.996 21.752 200.996 22.616C200.996 23.48 200.751 24.2373 200.26 24.888C199.78 25.528 199.119 26.024 198.276 26.376C197.444 26.728 196.505 26.904 195.46 26.904C194.425 26.904 193.487 26.728 192.644 26.376C191.812 26.024 191.151 25.528 190.66 24.888C190.169 24.2373 189.924 23.48 189.924 22.616C189.924 21.752 190.169 21 190.66 20.36C191.151 19.72 191.812 19.224 192.644 18.872C193.487 18.52 194.425 18.344 195.46 18.344ZM195.46 20.072C194.799 20.072 194.207 20.1733 193.684 20.376C193.161 20.5787 192.751 20.872 192.452 21.256C192.164 21.6293 192.02 22.0827 192.02 22.616C192.02 23.1493 192.164 23.608 192.452 23.992C192.751 24.3653 193.161 24.6533 193.684 24.856C194.207 25.0587 194.799 25.16 195.46 25.16C196.143 25.16 196.74 25.0587 197.252 24.856C197.775 24.6533 198.18 24.3653 198.468 23.992C198.767 23.608 198.916 23.1493 198.916 22.616C198.916 22.0827 198.767 21.6293 198.468 21.256C198.18 20.872 197.775 20.5787 197.252 20.376C196.74 20.1733 196.143 20.072 195.46 20.072ZM188.772 28.888H202.196V30.632H188.772V28.888ZM203.491 29.064H216.915V30.792H203.491V29.064ZM209.123 26.248H211.235V29.752H209.123V26.248ZM205.011 18.552H215.395V23.496H207.139V25.976H205.027V21.832H213.283V20.248H205.011V18.552ZM205.027 25.144H215.731V26.84H205.027V25.144ZM231.65 17.576H233.794V32.392H231.65V17.576ZM233.25 23.256H235.858V25H233.25V23.256ZM227.762 19.112H229.858C229.858 20.5947 229.644 21.9973 229.218 23.32C228.802 24.6427 228.108 25.8587 227.138 26.968C226.178 28.0667 224.876 29.0267 223.234 29.848L222.034 28.232C223.335 27.56 224.407 26.8027 225.25 25.96C226.103 25.1173 226.732 24.1627 227.138 23.096C227.554 22.0187 227.762 20.8187 227.762 19.496V19.112ZM222.85 19.112H228.866V20.824H222.85V19.112ZM247.089 17.608H249.217V25.56H247.089V17.608ZM239.377 26.216H241.473V27.592H247.105V26.216H249.217V32.264H239.377V26.216ZM241.473 29.224V30.568H247.105V29.224H241.473ZM241.153 18.216C241.921 18.216 242.609 18.3653 243.217 18.664C243.825 18.9627 244.305 19.3733 244.657 19.896C245.009 20.4187 245.185 21.0213 245.185 21.704C245.185 22.3867 245.009 22.9947 244.657 23.528C244.305 24.0507 243.825 24.4613 243.217 24.76C242.609 25.0587 241.921 25.208 241.153 25.208C240.385 25.208 239.697 25.0587 239.089 24.76C238.481 24.4613 238.001 24.0507 237.649 23.528C237.297 22.9947 237.121 22.3867 237.121 21.704C237.121 21.0213 237.297 20.4187 237.649 19.896C238.001 19.3733 238.481 18.9627 239.089 18.664C239.697 18.3653 240.385 18.216 241.153 18.216ZM241.153 19.96C240.779 19.96 240.443 20.0293 240.145 20.168C239.846 20.3067 239.611 20.5093 239.441 20.776C239.281 21.032 239.201 21.3413 239.201 21.704C239.201 22.0773 239.281 22.3973 239.441 22.664C239.611 22.92 239.846 23.1173 240.145 23.256C240.443 23.384 240.779 23.448 241.153 23.448C241.526 23.448 241.857 23.384 242.145 23.256C242.443 23.1173 242.678 22.92 242.849 22.664C243.019 22.3973 243.105 22.0773 243.105 21.704C243.105 21.3413 243.019 21.032 242.849 20.776C242.678 20.5093 242.443 20.3067 242.145 20.168C241.857 20.0293 241.526 19.96 241.153 19.96Z" fill="white"/>
</svg>
