<svg width="50" height="47" viewBox="0 0 50 47" fill="none" xmlns="http://www.w3.org/2000/svg">
<rect x="0.427246" width="49.5542" height="47" rx="3" fill="white"/>
<path d="M44.1003 23.9245C44.1003 22.6006 43.975 21.3277 43.7424 20.1057H25.2036V27.3274H35.7972C35.3409 29.6611 33.9541 31.6383 31.8693 32.9622V37.6465H38.2309C41.9529 34.3963 44.1003 29.6102 44.1003 23.9245Z" fill="#4285F4"/>
<path d="M25.2036 42.1696C30.5183 42.1696 34.9741 40.4978 38.2309 37.6465L31.8694 32.9622C30.1068 34.0823 27.852 34.7443 25.2036 34.7443C20.0768 34.7443 15.7374 31.4601 14.1895 27.0474H7.61328V31.8844C10.8522 37.986 17.509 42.1696 25.2036 42.1696Z" fill="#34A853"/>
<path d="M14.1895 27.0474C13.7958 25.9273 13.5721 24.7307 13.5721 23.5002C13.5721 22.2698 13.7958 21.0732 14.1895 19.9531V15.116H7.6132C6.28005 17.6363 5.51953 20.4877 5.51953 23.5002C5.51953 26.5128 6.28005 29.3642 7.6132 31.8845L14.1895 27.0474Z" fill="#FBBC05"/>
<path d="M25.2036 12.2562C28.0936 12.2562 30.6883 13.1981 32.7283 15.0481L38.374 9.69335C34.9651 6.68078 30.5094 4.83081 25.2036 4.83081C17.509 4.83081 10.8522 9.01446 7.61328 15.116L14.1895 19.9531C15.7374 15.5403 20.0768 12.2562 25.2036 12.2562Z" fill="#EA4335"/>
</svg>
